<?xml version="1.0" encoding="iso-8859-1"?>
<!-- Generator: Adobe Illustrator 16.0.0, SVG Export Plug-In . SVG Version: 6.00 Build 0)  -->
<!DOCTYPE svg PUBLIC "-//W3C//DTD SVG 1.1//EN" "http://www.w3.org/Graphics/SVG/1.1/DTD/svg11.dtd">
<svg version="1.1" xmlns="http://www.w3.org/2000/svg" xmlns:xlink="http://www.w3.org/1999/xlink" x="0px" y="0px"
	 width="242.65px" height="153.01px" viewBox="0 0 242.65 153.01" style="enable-background:new 0 0 242.65 153.01;"
	 xml:space="preserve">
<g id="mobilepay">
	<g>
		<path style="fill:#003F62;" d="M53.146,121.812V97.919h-0.471l-10.671,23.893h-3.295l-10.75-23.893h-0.471v23.893h-3.334v-26.09
			h6.159l10.004,22.323l10.004-22.323h6.159v26.09H53.146z"/>
		<path style="fill:#003F62;" d="M70.527,122.047c-7.415,0-9.141-1.883-9.141-9.337c0-7.729,1.961-9.376,9.141-9.376
			c7.65,0,9.102,2.039,9.102,9.376C79.628,120.164,77.941,122.047,70.527,122.047z M70.527,105.57c-5.061,0-5.924,0.784-5.924,7.14
			c0,6.081,0.628,7.101,5.924,7.101s5.885-1.02,5.885-7.101C76.412,106.707,76.059,105.57,70.527,105.57z"/>
		<path style="fill:#003F62;" d="M100.069,120.086c-1.569,1.373-3.924,2-7.454,2c-1.883,0-3.492-0.117-5.689-0.432
			c-1.294-0.195-1.608-0.234-2.55-0.51V95.722h3.099v9.809c0.432-0.549,0.706-0.784,1.177-1.098c1.137-0.707,2.864-1.06,4.904-1.06
			c3.452,0,5.768,0.823,7.062,2.628c0.589,0.785,0.941,1.531,1.177,2.747c0.275,1.255,0.354,2.236,0.354,3.884
			C102.148,116.633,101.6,118.713,100.069,120.086z M93.164,105.884c-1.961,0-3.609,0.274-4.511,0.784
			c-0.942,0.51-1.177,1.216-1.177,3.609v9.259c1.53,0.196,3.021,0.313,4.434,0.313c1.766,0,3.06-0.234,4.197-0.666
			c2.119-0.824,2.825-2.354,2.825-6.513C98.932,107.375,97.637,105.884,93.164,105.884z"/>
		<path style="fill:#003F62;" d="M108.818,121.812v-16.046h-4.354v-2.197h7.454v18.243H108.818z M108.818,98.821v-3.1h3.1v3.1
			H108.818z"/>
		<path style="fill:#003F62;" d="M119.332,121.812V97.919h-4.354v-2.197h7.453v26.09H119.332z"/>
		<path style="fill:#003F62;" d="M142.754,121.185c-2.236,0.784-4.434,0.862-6.474,0.862c-2.942,0-4.904-0.431-6.198-1.255
			c-1.962-1.217-2.903-3.688-2.903-7.729c0-2.59,0.354-4.63,1.02-6.081c1.099-2.473,3.767-3.609,8.199-3.609
			c3.452,0,5.925,0.745,7.181,2.236c1.099,1.255,1.49,2.941,1.49,6.002c0,0.706,0,0.942-0.039,1.687h-14.595v0.706
			c0,2.198,0.314,3.649,0.981,4.396c0.784,0.901,2.354,1.372,4.786,1.372c2.981,0,4.551-0.392,5.021-0.863
			c0.51-0.509,0.471-1.255,0.667-2.511h3.139c0.039,0.706,0.118,1.49,0.079,2.119C145.068,119.693,144.322,120.636,142.754,121.185z
			 M141.733,108.12c-0.549-1.727-2.118-2.511-5.179-2.511c-2.196,0-3.766,0.353-4.629,1.059c-0.902,0.746-1.295,1.923-1.413,4.394
			h11.573C142.086,109.532,141.969,108.865,141.733,108.12z"/>
		<path style="fill:#003F62;" d="M163.861,112.475h-10.515v9.337h-3.334v-26.09h13.77c5.571,0,8.239,3.414,8.239,7.887
			C172.021,105.923,171.59,112.475,163.861,112.475z M162.332,98.312h-8.985v11.533h8.043c4.826,0,7.297-0.353,7.297-5.845
			C168.687,99.685,166.49,98.312,162.332,98.312z"/>
		<path style="fill:#003F62;" d="M189.964,121.812l-0.353-1.726c-1.178,1.373-3.217,2-6.591,2c-6.043,0-8.239-1.45-8.239-5.688
			c0-1.49,0.274-2.628,0.823-3.491c1.296-2.001,3.609-2.079,5.768-2.079h8.082v-2.04c0-0.863,0.039-1.884-0.784-2.394
			c-1.295-0.863-7.926-1.06-9.181,0.195c-0.353,0.354-0.353,0.629-0.589,1.962h-3.021c-0.039-0.667-0.078-1.765-0.078-1.765
			c-0.04-0.706,0.117-1.256,0.588-1.727c1.334-1.334,5.571-1.647,7.14-1.647c2.079,0,6.121,0.078,7.729,1.529
			c1.373,1.217,1.295,2.668,1.295,6.592v10.278H189.964z M189.454,112.984h-5.964c-2.628,0-3.53,0.079-4.236,0.471
			c-0.785,0.432-1.138,1.452-1.138,3.061c0,1.295,0.235,1.961,0.823,2.393c0.824,0.589,2.158,0.863,4.315,0.863
			c2.158,0,3.492-0.156,4.434-0.549c1.648-0.706,1.766-2.236,1.766-3.806V112.984z"/>
		<path style="fill:#003F62;" d="M207.07,124.989c-0.313,0.981-0.707,2.001-0.902,2.433c-0.236,0.589-0.628,1.138-1.06,1.49
			c-0.706,0.55-1.53,0.746-2.981,0.746c-0.942,0-1.844-0.039-2.707-0.157v-2.394h0.902c1.883,0,2.236-0.038,2.746-0.353
			c0.471-0.354,0.863-1.059,1.452-2.902l0.667-2.041h-2.942l-6.435-18.243h3.178l5.336,16.242h1.53l5.218-16.242h3.099
			L207.07,124.989z"/>
	</g>
	<g>
		<path style="fill:#003F62;" d="M99.253,144.102h-6.194v-10.868h5.949c2.304,0,3.104,0.964,3.104,2.86
			c0,1.144-0.67,1.863-1.944,2.239v0.163c1.634,0.262,2.304,1.242,2.304,2.582C102.472,143.04,101.328,144.102,99.253,144.102z
			 M98.37,134.312h-3.923v3.661h3.743c1.667,0,2.533-0.327,2.533-2.027C100.724,134.476,99.825,134.312,98.37,134.312z
			 M98.713,139.052h-4.266v3.955h4.07c1.503,0,2.565-0.146,2.565-1.814C101.083,139.754,100.544,139.052,98.713,139.052z"/>
		<path style="fill:#003F62;" d="M108.31,145.426c-0.131,0.409-0.294,0.833-0.376,1.013c-0.098,0.245-0.261,0.474-0.441,0.621
			c-0.294,0.229-0.637,0.312-1.242,0.312c-0.393,0-0.768-0.017-1.127-0.065v-0.997h0.376c0.784,0,0.931-0.017,1.144-0.147
			c0.196-0.147,0.359-0.441,0.604-1.209l0.278-0.851H106.3l-2.681-7.599h1.324l2.222,6.766h0.638l2.174-6.766h1.291L108.31,145.426z
			"/>
		<path style="fill:#003F62;" d="M121.289,144.102h-5.312v-10.868h4.887c2.157,0,5.279,0.18,5.279,4.756v1.471
			C126.144,141.536,125.457,144.102,121.289,144.102z M124.754,137.761c0-1.798-0.703-3.448-3.661-3.448h-3.727v8.694h3.857
			c2.435,0,3.53-1.161,3.53-3.481V137.761z"/>
		<path style="fill:#003F62;" d="M134.072,144.102l-0.146-0.719c-0.491,0.572-1.341,0.834-2.746,0.834
			c-2.517,0-3.432-0.605-3.432-2.371c0-0.62,0.113-1.094,0.343-1.454c0.539-0.833,1.504-0.866,2.402-0.866h3.367v-0.85
			c0-0.359,0.016-0.784-0.327-0.997c-0.539-0.359-3.302-0.441-3.824,0.082c-0.147,0.146-0.147,0.262-0.245,0.817h-1.259
			c-0.017-0.278-0.032-0.736-0.032-0.736c-0.017-0.293,0.049-0.522,0.245-0.719c0.556-0.556,2.32-0.687,2.975-0.687
			c0.866,0,2.55,0.033,3.22,0.638c0.571,0.506,0.539,1.111,0.539,2.746v4.281H134.072z M133.86,140.425h-2.484
			c-1.096,0-1.471,0.032-1.766,0.196c-0.326,0.179-0.474,0.604-0.474,1.274c0,0.539,0.098,0.817,0.343,0.996
			c0.344,0.246,0.899,0.36,1.799,0.36c0.898,0,1.454-0.064,1.847-0.229c0.687-0.295,0.735-0.933,0.735-1.586V140.425z"/>
		<path style="fill:#003F62;" d="M143.325,144.102v-4.15c0-1.455-0.05-1.831-0.393-2.126c-0.311-0.276-0.915-0.408-1.798-0.408
			c-0.49,0-1.014,0.05-1.487,0.132c-0.294,0.048-0.506,0.098-0.932,0.229v6.324h-1.291v-7.599h1.161l0.098,0.604
			c0.343-0.229,0.571-0.358,0.898-0.474c0.474-0.163,1.079-0.245,1.88-0.245c0.915,0,1.618,0.163,2.157,0.441
			c0.507,0.262,0.784,0.72,0.898,1.291c0.065,0.393,0.099,0.735,0.099,1.618v4.363H143.325z"/>
		<path style="fill:#003F62;" d="M153.133,143.645c-0.653,0.375-1.716,0.539-3.138,0.539c-0.98,0-1.798-0.082-2.419-0.262
			c-0.653-0.18-0.997-0.556-0.997-1.144c0-0.344,0-0.654,0.033-0.997h1.241c0.082,0.752,0.099,0.98,0.246,1.127
			c0.294,0.295,1.127,0.36,1.978,0.36c0.932,0,1.585-0.114,2.042-0.344c0.344-0.18,0.491-0.49,0.491-1.046
			c0-0.637-0.131-0.932-0.736-1.046c-0.18-0.033-0.343-0.033-0.522-0.049c-0.098-0.016-0.425-0.016-0.932-0.032
			c-0.245,0-0.522-0.017-0.85-0.033c-0.817-0.049-1.177-0.082-1.553-0.18c-0.932-0.229-1.356-0.833-1.356-1.847
			c0-1.684,0.883-2.288,3.432-2.288c0.654,0,1.455,0.049,1.929,0.114c0.556,0.082,0.964,0.213,1.259,0.393
			c0.294,0.195,0.408,0.506,0.408,1.111c0,0.163,0,0.261-0.016,0.522h-1.259l-0.049-0.277c-0.065-0.409-0.131-0.572-0.246-0.671
			c-0.245-0.18-0.882-0.277-1.748-0.277c-0.883,0-1.39,0.049-1.814,0.229c-0.425,0.163-0.588,0.489-0.588,1.062
			c0,0.393,0.114,0.719,0.311,0.85c0.229,0.164,0.752,0.213,2.043,0.246c0.556,0.017,0.898,0.017,1.046,0.017
			c0.719,0.016,1.192,0.081,1.602,0.245c0.703,0.276,0.98,0.801,0.98,1.911C153.95,142.778,153.688,143.317,153.133,143.645z"/>
		<path style="fill:#003F62;" d="M161.322,144.102l-3.48-3.645h-0.638v3.645h-1.291v-10.868h1.291v6.292h0.638l2.926-3.022h1.471
			l-3.334,3.366l4.118,4.232H161.322z"/>
		<path style="fill:#003F62;" d="M170.428,143.841c-0.932,0.326-1.847,0.359-2.696,0.359c-1.227,0-2.043-0.181-2.582-0.523
			c-0.817-0.506-1.21-1.536-1.21-3.22c0-1.078,0.147-1.929,0.426-2.533c0.457-1.029,1.568-1.503,3.415-1.503
			c1.438,0,2.469,0.311,2.99,0.931c0.458,0.523,0.622,1.227,0.622,2.501c0,0.294,0,0.392-0.017,0.702h-6.08v0.295
			c0,0.915,0.132,1.521,0.408,1.83c0.327,0.376,0.981,0.572,1.995,0.572c1.241,0,1.896-0.163,2.092-0.36
			c0.212-0.212,0.196-0.521,0.277-1.046h1.308c0.017,0.295,0.049,0.622,0.032,0.883
			C171.393,143.219,171.082,143.611,170.428,143.841z M170.003,138.397c-0.229-0.719-0.882-1.046-2.157-1.046
			c-0.915,0-1.569,0.147-1.929,0.442c-0.376,0.311-0.539,0.801-0.588,1.83h4.821C170.15,138.986,170.102,138.708,170.003,138.397z"
			/>
		<path style="fill:#003F62;" d="M182.917,144.102h-6.194v-10.868h5.949c2.305,0,3.105,0.964,3.105,2.86
			c0,1.144-0.671,1.863-1.945,2.239v0.163c1.635,0.262,2.305,1.242,2.305,2.582C186.137,143.04,184.993,144.102,182.917,144.102z
			 M182.035,134.312h-3.923v3.661h3.743c1.667,0,2.532-0.327,2.532-2.027C184.388,134.476,183.489,134.312,182.035,134.312z
			 M182.378,139.052h-4.266v3.955h4.07c1.503,0,2.565-0.146,2.565-1.814C184.748,139.754,184.208,139.052,182.378,139.052z"/>
		<path style="fill:#003F62;" d="M194.066,144.102l-0.147-0.719c-0.49,0.572-1.34,0.834-2.745,0.834
			c-2.517,0-3.433-0.605-3.433-2.371c0-0.62,0.114-1.094,0.344-1.454c0.539-0.833,1.504-0.866,2.402-0.866h3.367v-0.85
			c0-0.359,0.016-0.784-0.327-0.997c-0.54-0.359-3.302-0.441-3.824,0.082c-0.147,0.146-0.147,0.262-0.246,0.817h-1.258
			c-0.017-0.278-0.033-0.736-0.033-0.736c-0.016-0.293,0.05-0.522,0.245-0.719c0.556-0.556,2.321-0.687,2.975-0.687
			c0.867,0,2.55,0.033,3.22,0.638c0.571,0.506,0.54,1.111,0.54,2.746v4.281H194.066z M193.854,140.425h-2.484
			c-1.096,0-1.472,0.032-1.766,0.196c-0.326,0.179-0.474,0.604-0.474,1.274c0,0.539,0.098,0.817,0.343,0.996
			c0.344,0.246,0.899,0.36,1.798,0.36c0.899,0,1.455-0.064,1.847-0.229c0.687-0.295,0.736-0.933,0.736-1.586V140.425z"/>
		<path style="fill:#003F62;" d="M203.319,144.102v-4.15c0-1.455-0.05-1.831-0.394-2.126c-0.31-0.276-0.915-0.408-1.797-0.408
			c-0.49,0-1.014,0.05-1.487,0.132c-0.295,0.048-0.507,0.098-0.932,0.229v6.324h-1.291v-7.599h1.16l0.098,0.604
			c0.344-0.229,0.572-0.358,0.898-0.474c0.475-0.163,1.08-0.245,1.881-0.245c0.915,0,1.618,0.163,2.156,0.441
			c0.508,0.262,0.784,0.72,0.899,1.291c0.065,0.393,0.099,0.735,0.099,1.618v4.363H203.319z"/>
		<path style="fill:#003F62;" d="M212.294,144.102l-3.482-3.645h-0.637v3.645h-1.291v-10.868h1.291v6.292h0.637l2.927-3.022h1.471
			l-3.334,3.366l4.118,4.232H212.294z"/>
	</g>
	<g>
		<polygon style="fill:none;" points="90.669,25.755 100.216,50.646 90.669,25.754 		"/>
		<path style="fill:none;" d="M130.407,72.728l-10.039,3.835c-0.534,0.204-0.794,0.822-0.58,1.38
			c0.213,0.559,0.818,0.847,1.354,0.642l10.039-3.834c0.533-0.204,0.794-0.822,0.58-1.38
			C131.548,72.812,130.942,72.524,130.407,72.728z"/>
		<polygon style="fill:none;" points="109.929,75.973 123.908,70.611 109.929,75.973 		"/>
		<path style="fill:none;" d="M133.911,39.43c-2.916,0-5.443,1.703-6.639,4.167l1.253,3.266c0-0.02-0.002-0.039-0.002-0.059
			c0-2.976,2.412-5.388,5.388-5.388c2.975,0,5.389,2.412,5.389,5.388c0,2.975-2.414,5.388-5.389,5.388
			c-1.611,0-3.058-0.709-4.045-1.831l1.254,3.266c0.861,0.353,1.803,0.551,2.791,0.551c4.066,0,7.374-3.308,7.374-7.374
			S137.978,39.43,133.911,39.43z"/>
		<path style="fill:#003F62;" d="M120.032,35.062c1.124-0.217,2.372-0.435,3.723-0.638c1.947-0.294,4.11-0.557,6.438-0.743
			c-0.017-0.034-0.033-0.069-0.049-0.104c-0.949-1.875-2.845-2.958-4.812-2.958c-0.818,0-1.648,0.188-2.427,0.582
			c-0.109,0.055-0.214,0.114-0.319,0.176C121.197,32.199,120.301,33.565,120.032,35.062z"/>
		<path style="fill:#003F62;" d="M153.503,37.988c-0.031-0.579-0.516-1.182-1.073-1.339c0,0-0.004-0.001-0.008-0.001
			c-0.001,0-0.003-0.001-0.004-0.001c-0.007-0.002-0.017-0.005-0.027-0.008c-0.002,0-0.006-0.001-0.009-0.002
			c-0.012-0.002-0.025-0.006-0.043-0.011c-0.002,0-0.005-0.001-0.007-0.002c-0.02-0.004-0.042-0.01-0.066-0.016
			c-0.005-0.001-0.011-0.003-0.015-0.004c-0.026-0.006-0.056-0.013-0.087-0.02c-0.005-0.002-0.01-0.002-0.014-0.003
			c-0.028-0.007-0.061-0.014-0.094-0.021c-0.009-0.002-0.018-0.004-0.026-0.006c-0.038-0.008-0.077-0.017-0.119-0.026
			c-0.011-0.002-0.023-0.004-0.034-0.007c-0.046-0.009-0.094-0.019-0.145-0.029c-0.006-0.001-0.01-0.001-0.015-0.002
			c-0.048-0.01-0.1-0.02-0.152-0.03c-0.015-0.003-0.029-0.006-0.044-0.009c-0.057-0.011-0.117-0.021-0.18-0.033
			c-0.016-0.002-0.03-0.005-0.046-0.008c-0.062-0.011-0.125-0.021-0.19-0.033c-0.008-0.001-0.018-0.003-0.025-0.004
			c-0.073-0.011-0.148-0.024-0.226-0.037c-0.021-0.003-0.04-0.007-0.059-0.009c-0.079-0.013-0.161-0.026-0.246-0.039
			c-0.016-0.002-0.032-0.004-0.049-0.007c-0.077-0.011-0.156-0.023-0.239-0.035c-0.02-0.003-0.037-0.005-0.057-0.008
			c-0.093-0.013-0.188-0.025-0.286-0.04c-0.025-0.003-0.051-0.006-0.076-0.01c-0.102-0.014-0.205-0.028-0.313-0.041
			c-0.014-0.002-0.028-0.003-0.041-0.005c-0.1-0.012-0.204-0.025-0.309-0.038c-0.027-0.003-0.054-0.006-0.08-0.009
			c-0.115-0.014-0.231-0.027-0.353-0.04c-0.029-0.003-0.06-0.006-0.088-0.01c-0.117-0.012-0.235-0.024-0.358-0.037
			c-0.014-0.002-0.026-0.003-0.041-0.004c-0.131-0.013-0.268-0.026-0.406-0.04c-0.033-0.003-0.066-0.006-0.101-0.009
			c-0.139-0.012-0.279-0.024-0.425-0.037c-0.028-0.002-0.057-0.005-0.083-0.007c-0.137-0.011-0.276-0.022-0.419-0.033
			c-0.024-0.002-0.048-0.004-0.071-0.005c-0.156-0.012-0.316-0.024-0.48-0.035c-0.037-0.002-0.072-0.005-0.11-0.008
			c-0.166-0.01-0.335-0.021-0.508-0.032c-0.021-0.001-0.043-0.002-0.064-0.003c-0.162-0.01-0.326-0.019-0.494-0.028
			c-0.034-0.001-0.07-0.004-0.106-0.005c-0.182-0.01-0.365-0.018-0.554-0.026c-0.038-0.002-0.076-0.004-0.114-0.005
			c-0.196-0.009-0.395-0.017-0.598-0.024c-0.001,0-0.004,0-0.006,0c-0.203-0.007-0.413-0.014-0.624-0.02
			c-0.043-0.001-0.083-0.003-0.126-0.004c-0.208-0.006-0.422-0.012-0.639-0.016c-0.034-0.001-0.069-0.001-0.104-0.002
			c-0.209-0.004-0.423-0.008-0.64-0.011c-0.022,0-0.045-0.001-0.068-0.001c-0.229-0.003-0.463-0.005-0.701-0.007
			c-0.045,0-0.091,0-0.136,0c-0.241-0.002-0.486-0.003-0.735-0.003c-0.006,0-0.012,0-0.017,0c-0.019,0-0.039,0-0.057,0
			c-0.206,0-0.416,0-0.626,0.002c-0.053,0-0.104,0.001-0.157,0.001c-0.235,0.001-0.475,0.003-0.718,0.006
			c-0.022,0-0.048,0.001-0.07,0.001c-0.221,0.003-0.446,0.007-0.672,0.011c-0.061,0.001-0.117,0.002-0.179,0.003
			c-0.249,0.005-0.503,0.01-0.76,0.017c-0.021,0-0.043,0.001-0.062,0.001c-0.239,0.006-0.481,0.013-0.727,0.021
			c-0.064,0.002-0.13,0.004-0.194,0.006c-0.267,0.008-0.534,0.017-0.807,0.028c-0.016,0-0.03,0.001-0.044,0.001
			c-0.26,0.01-0.521,0.02-0.786,0.032c-0.073,0.003-0.145,0.006-0.218,0.01c-0.281,0.012-0.565,0.025-0.854,0.04
			c-3.062,0.151-5.899,0.458-8.396,0.822c-6.309,0.917-10.427,2.189-10.427,2.189c-0.556,0.171-0.983,0.786-0.951,1.365l1.1,20.088
			c0.004,0.053,0.012,0.102,0.021,0.15c0.002,0.01,0.004,0.02,0.006,0.03c0.011,0.045,0.025,0.089,0.042,0.13
			c0.004,0.007,0.008,0.015,0.01,0.022c0.018,0.038,0.037,0.073,0.057,0.106c0.004,0.005,0.007,0.01,0.011,0.015
			c0.022,0.035,0.05,0.067,0.08,0.097c0.005,0.007,0.011,0.014,0.019,0.02c0.029,0.029,0.061,0.055,0.094,0.078
			c0.005,0.003,0.01,0.005,0.013,0.007c0.032,0.021,0.066,0.039,0.102,0.053c0.008,0.003,0.015,0.007,0.022,0.01
			c0.039,0.016,0.079,0.027,0.12,0.036c0.009,0.002,0.018,0.002,0.026,0.004c0.041,0.007,0.083,0.011,0.125,0.012
			c0.004,0,0.007,0.001,0.01,0.001c0.043,0,0.087-0.004,0.132-0.012c0.012-0.002,0.021-0.003,0.033-0.005
			c0.045-0.009,0.092-0.02,0.138-0.035c0,0,6.627-2.223,17.285-3.05l3.131,8.098l-11.894,4.561l-13.979,5.362v0l-9.713-25.327
			l-9.546-24.891v0l25.872-9.923l3.938,10.271c-0.301,0.168-0.604,0.339-0.914,0.515c-9.396,5.352-15.438,11.181-15.438,11.181
			c-0.417,0.404-0.521,1.145-0.232,1.648l7.701,13.361l-0.683-12.484c-0.09-1.631,1.021-3.224,2.58-3.705
			c0.149-0.046,1.779-0.543,4.485-1.134c0.042-0.597,0.16-1.193,0.352-1.776c0.598-1.82,1.851-3.306,3.537-4.204
			c0.047-0.025,0.093-0.052,0.141-0.076c1.029-0.52,2.177-0.794,3.323-0.794h0.001c2.798,0,5.321,1.55,6.582,4.047
			c0.144,0.28,0.264,0.566,0.367,0.856c0.2-0.011,0.401-0.021,0.604-0.031c2.464-0.122,4.834-0.185,7.044-0.185l0,0
			c2.895,0,5.257,0.107,7.14,0.253L138.843,19.3c-0.291-0.503-0.994-0.823-1.563-0.711c0,0-3.803,0.749-12.064,4.971l-5.59-14.606
			c-1.014-2.651-4.013-3.99-6.663-2.976L86.769,16c-2.651,1.014-3.99,4.013-2.976,6.663l23.033,60.199
			c1.015,2.651,4.013,3.99,6.664,2.976l26.192-10.021c2.651-1.014,3.99-4.013,2.976-6.664l-4.479-11.493
			c0.027-0.001,0.055-0.002,0.081-0.003c0.024,0,0.051-0.002,0.075-0.002c0.033-0.001,0.066-0.002,0.1-0.002
			c0.235-0.008,0.466-0.013,0.695-0.019c0.062-0.001,0.122-0.003,0.183-0.005c0.25-0.005,0.496-0.01,0.739-0.014
			c0.037,0,0.074,0,0.113-0.001c0.214-0.003,0.427-0.005,0.635-0.008c0.054,0,0.107,0,0.161-0.001
			c0.234-0.001,0.465-0.003,0.691-0.003c0.011,0,0.022,0,0.033,0c0.024,0,0.047,0,0.072,0c0.225,0,0.446,0.001,0.664,0.003
			c0.034,0,0.068,0,0.102,0c0.232,0.002,0.462,0.005,0.687,0.009c0.041,0,0.081,0.001,0.121,0.002
			c0.462,0.008,0.906,0.019,1.332,0.033c0.031,0.001,0.062,0.003,0.093,0.003c0.21,0.007,0.415,0.016,0.615,0.024
			c0.025,0.001,0.051,0.002,0.075,0.003c0.201,0.009,0.4,0.019,0.594,0.029c0.004,0,0.008,0,0.011,0
			c0.198,0.01,0.391,0.021,0.58,0.033c0.023,0.001,0.049,0.003,0.072,0.005c0.188,0.011,0.372,0.023,0.552,0.036
			c0.003,0,0.008,0,0.011,0c0.182,0.013,0.357,0.026,0.529,0.041c0.013,0.001,0.024,0.002,0.037,0.003
			c0.17,0.014,0.337,0.028,0.499,0.042c0.016,0.001,0.032,0.003,0.048,0.004c0.328,0.03,0.639,0.062,0.933,0.094
			c0.012,0.001,0.023,0.003,0.035,0.004c0.147,0.016,0.291,0.033,0.43,0.049c0.005,0,0.008,0.001,0.012,0.001
			c0.282,0.035,0.549,0.069,0.799,0.105c0.007,0.001,0.015,0.002,0.023,0.003c0.246,0.036,0.478,0.071,0.692,0.107
			c0.004,0,0.007,0.001,0.012,0.001c0.107,0.018,0.209,0.035,0.308,0.053c0.006,0,0.01,0.001,0.014,0.001
			c0.198,0.035,0.379,0.069,0.545,0.103c0.006,0.001,0.013,0.002,0.019,0.003c0.25,0.051,0.467,0.098,0.65,0.142
			c0.004,0.001,0.007,0.002,0.012,0.003c0.118,0.027,0.224,0.054,0.315,0.078c0.004,0.001,0.008,0.002,0.012,0.003
			c0.045,0.012,0.085,0.023,0.124,0.033c0.003,0.001,0.004,0.002,0.007,0.003c0.077,0.021,0.14,0.04,0.191,0.055
			c0.002,0.001,0.005,0.001,0.008,0.002c0.023,0.007,0.045,0.014,0.063,0.02c0.002,0,0.003,0.001,0.003,0.001
			c0.017,0.005,0.031,0.01,0.044,0.014c0.001,0,0.001,0.001,0.004,0.001c0.011,0.004,0.021,0.007,0.027,0.009
			c0,0.001,0,0.001,0.002,0.001c0.005,0.001,0.007,0.002,0.007,0.002c0.051,0.018,0.099,0.03,0.146,0.041
			c0.009,0.002,0.02,0.004,0.029,0.006c0.045,0.008,0.089,0.012,0.133,0.013c0.003,0,0.006,0.001,0.007,0.001
			c0.007,0,0.012-0.001,0.017-0.001c0.038-0.001,0.075-0.005,0.11-0.011c0.004,0,0.011-0.001,0.016-0.002
			c0.039-0.008,0.074-0.021,0.109-0.035c0.007-0.002,0.015-0.007,0.021-0.01c0.034-0.016,0.066-0.034,0.097-0.056
			c0.001-0.001,0.003-0.002,0.004-0.004c0.028-0.021,0.056-0.047,0.078-0.074c0.006-0.006,0.012-0.012,0.017-0.018
			c0.023-0.029,0.045-0.06,0.062-0.094c0.004-0.006,0.006-0.013,0.01-0.019c0.015-0.032,0.029-0.066,0.041-0.103
			c0.002-0.006,0.005-0.012,0.006-0.02c0.013-0.04,0.02-0.083,0.025-0.128c0.002-0.01,0.002-0.02,0.003-0.03
			c0.004-0.047,0.006-0.095,0.003-0.147L153.503,37.988z M131.181,74.75l-10.039,3.834c-0.535,0.205-1.141-0.083-1.354-0.642
			c-0.214-0.558,0.046-1.176,0.58-1.38l10.039-3.835c0.535-0.203,1.141,0.084,1.354,0.642
			C131.975,73.928,131.714,74.546,131.181,74.75z M133.911,54.178c-0.988,0-1.93-0.198-2.791-0.551
			c-2.686-1.104-4.582-3.745-4.582-6.823c0-1.149,0.265-2.237,0.734-3.208c1.195-2.463,3.723-4.167,6.639-4.167
			c4.066,0,7.374,3.308,7.374,7.374S137.978,54.178,133.911,54.178z"/>
		<path style="fill:#003F62;" d="M133.911,52.191c2.975,0,5.389-2.413,5.389-5.388c0-2.976-2.414-5.388-5.389-5.388
			c-2.976,0-5.388,2.412-5.388,5.388c0,0.02,0.002,0.039,0.002,0.059c0.015,1.34,0.519,2.563,1.341,3.499
			C130.854,51.482,132.3,52.191,133.911,52.191z"/>
	</g>
	<path style="fill:#003F62;" d="M217.802,136.576c-0.46,0.46-1.017,0.689-1.664,0.689c-0.655,0-1.211-0.229-1.678-0.689
		c-0.46-0.459-0.689-1.017-0.689-1.67c0-0.647,0.229-1.205,0.689-1.665c0.467-0.466,1.022-0.695,1.678-0.695
		c0.647,0,1.204,0.229,1.664,0.695c0.466,0.46,0.695,1.018,0.695,1.665C218.497,135.56,218.268,136.117,217.802,136.576z
		 M217.62,133.423c-0.41-0.411-0.905-0.619-1.482-0.619c-0.578,0-1.078,0.208-1.49,0.619c-0.41,0.411-0.619,0.905-0.619,1.483
		c0,0.577,0.209,1.078,0.619,1.489c0.412,0.41,0.912,0.62,1.49,0.62c0.577,0,1.072-0.21,1.482-0.62
		c0.411-0.411,0.62-0.912,0.62-1.489C218.24,134.328,218.031,133.834,217.62,133.423z M217.363,136.2h-0.425l-0.982-1.044h-0.528
		v1.044h-0.349v-2.631h0.989c0.361,0,0.618,0.042,0.779,0.118c0.229,0.118,0.342,0.341,0.342,0.669c0,0.229-0.043,0.396-0.126,0.515
		c-0.125,0.181-0.362,0.271-0.71,0.278L217.363,136.2z M216.625,133.938c-0.097-0.049-0.271-0.077-0.529-0.077h-0.668v1.01h0.41
		c0.418,0,0.676-0.021,0.773-0.056c0.146-0.056,0.223-0.195,0.229-0.418C216.848,134.169,216.771,134.015,216.625,133.938z"/>
</g>
<g id="Layer_1">
</g>
</svg>
